<svg viewBox="0 0 900 500" xmlns="http://www.w3.org/2000/svg" font-family="Inter, system-ui, sans-serif">
  <defs>
    <linearGradient id="greenGrad" x1="0%" y1="0%" x2="100%" y2="100%">
      <stop offset="0%" style="stop-color:#43e97b"/>
      <stop offset="100%" style="stop-color:#38f9d7"/>
    </linearGradient>
    <linearGradient id="blueGrad" x1="0%" y1="0%" x2="100%" y2="100%">
      <stop offset="0%" style="stop-color:#4facfe"/>
      <stop offset="100%" style="stop-color:#00f2fe"/>
    </linearGradient>
    <filter id="glow" x="-50%" y="-50%" width="200%" height="200%">
      <feGaussianBlur stdDeviation="3" result="coloredBlur"/>
      <feMerge>
        <feMergeNode in="coloredBlur"/>
        <feMergeNode in="SourceGraphic"/>
      </feMerge>
    </filter>
  </defs>

  <!-- Location ring -->
  <ellipse cx="450" cy="260" rx="220" ry="180" fill="none" stroke="rgba(255,255,255,0.15)" stroke-width="3" stroke-dasharray="8 4"/>

  <!-- Location labels -->
  <text x="450" y="55" font-size="11" fill="rgba(255,255,255,0.4)" text-anchor="middle">0.0 / 1.0</text>
  <text x="695" y="265" font-size="11" fill="rgba(255,255,255,0.4)" text-anchor="start">0.25</text>
  <text x="450" y="465" font-size="11" fill="rgba(255,255,255,0.4)" text-anchor="middle">0.5</text>
  <text x="205" y="265" font-size="11" fill="rgba(255,255,255,0.4)" text-anchor="end">0.75</text>

  <!-- Long-range connections (dashed, blue) — endpoints on circle edges -->
  <!-- P0(450,80,r18) → P6(450,440,r14) -->
  <path d="M 450 98 Q 450 260 450 426" stroke="url(#blueGrad)" stroke-width="2" stroke-dasharray="6 3" fill="none" opacity="0.7"/>
  <!-- P0(450,80,r18) → P8(255,340,r14) -->
  <path d="M 438 96 Q 300 200 260 332" stroke="url(#blueGrad)" stroke-width="2" stroke-dasharray="6 3" fill="none" opacity="0.7"/>
  <!-- P0(450,80,r18) → P4(650,330,r14) -->
  <path d="M 462 96 Q 580 220 641 322" stroke="url(#blueGrad)" stroke-width="2" stroke-dasharray="6 3" fill="none" opacity="0.7"/>

  <!-- Near connections (solid, green) — endpoints calculated from circle edges -->
  <!-- P0(450,80,r18) → P1(520,93,r14) -->
  <path d="M 468 83 Q 488 82 506 90" stroke="#43e97b" stroke-width="2" fill="none" opacity="0.8"/>
  <!-- P0(450,80,r18) → P11(380,93,r14) -->
  <path d="M 432 83 Q 412 82 394 90" stroke="#43e97b" stroke-width="2" fill="none" opacity="0.8"/>
  <!-- P0(450,80,r18) → P2(590,145,r14) -->
  <path d="M 466 88 Q 530 105 577 139" stroke="#43e97b" stroke-width="1.5" fill="none" opacity="0.6"/>
  <!-- P3(640,215,r14) → P4(650,330,r14) -->
  <path d="M 641 229 Q 648 272 649 316" stroke="#43e97b" stroke-width="1.5" fill="none" opacity="0.6"/>
  <!-- P7(330,410,r14) → P8(255,340,r14) -->
  <path d="M 320 400 Q 285 375 265 350" stroke="#43e97b" stroke-width="1.5" fill="none" opacity="0.6"/>
  <!-- P5(570,410,r14) → P4(650,330,r14) -->
  <path d="M 580 400 Q 618 365 640 340" stroke="#43e97b" stroke-width="1.5" fill="none" opacity="0.6"/>
  <!-- P10(300,130,r14) → P9(250,220,r14) -->
  <path d="M 293 142 Q 275 170 257 208" stroke="#43e97b" stroke-width="1.5" fill="none" opacity="0.6"/>

  <!-- Peers -->
  <g filter="url(#glow)">
    <!-- Highlighted peer at top -->
    <circle cx="450" cy="80" r="18" fill="rgba(79,172,254,0.3)" stroke="#4facfe" stroke-width="2.5"/>
    <text x="450" y="85" font-size="11" fill="#fff" text-anchor="middle">P</text>
  </g>

  <!-- Regular peers around the ring -->
  <g>
    <circle cx="520" cy="93" r="14" fill="rgba(67,233,123,0.25)" stroke="#43e97b" stroke-width="2"/>
    <text x="520" y="98" font-size="10" fill="#fff" text-anchor="middle">P</text>
  </g>
  <g>
    <circle cx="590" cy="145" r="14" fill="rgba(67,233,123,0.25)" stroke="#43e97b" stroke-width="2"/>
    <text x="590" y="150" font-size="10" fill="#fff" text-anchor="middle">P</text>
  </g>
  <g>
    <circle cx="640" cy="215" r="14" fill="rgba(67,233,123,0.25)" stroke="#43e97b" stroke-width="2"/>
    <text x="640" y="220" font-size="10" fill="#fff" text-anchor="middle">P</text>
  </g>
  <g>
    <circle cx="650" cy="330" r="14" fill="rgba(67,233,123,0.25)" stroke="#43e97b" stroke-width="2"/>
    <text x="650" y="335" font-size="10" fill="#fff" text-anchor="middle">P</text>
  </g>
  <g>
    <circle cx="570" cy="410" r="14" fill="rgba(67,233,123,0.25)" stroke="#43e97b" stroke-width="2"/>
    <text x="570" y="415" font-size="10" fill="#fff" text-anchor="middle">P</text>
  </g>
  <g>
    <circle cx="450" cy="440" r="14" fill="rgba(67,233,123,0.25)" stroke="#43e97b" stroke-width="2"/>
    <text x="450" y="445" font-size="10" fill="#fff" text-anchor="middle">P</text>
  </g>
  <g>
    <circle cx="330" cy="410" r="14" fill="rgba(67,233,123,0.25)" stroke="#43e97b" stroke-width="2"/>
    <text x="330" y="415" font-size="10" fill="#fff" text-anchor="middle">P</text>
  </g>
  <g>
    <circle cx="255" cy="340" r="14" fill="rgba(67,233,123,0.25)" stroke="#43e97b" stroke-width="2"/>
    <text x="255" y="345" font-size="10" fill="#fff" text-anchor="middle">P</text>
  </g>
  <g>
    <circle cx="250" cy="220" r="14" fill="rgba(67,233,123,0.25)" stroke="#43e97b" stroke-width="2"/>
    <text x="250" y="225" font-size="10" fill="#fff" text-anchor="middle">P</text>
  </g>
  <g>
    <circle cx="300" cy="130" r="14" fill="rgba(67,233,123,0.25)" stroke="#43e97b" stroke-width="2"/>
    <text x="300" y="135" font-size="10" fill="#fff" text-anchor="middle">P</text>
  </g>
  <g>
    <circle cx="380" cy="93" r="14" fill="rgba(67,233,123,0.25)" stroke="#43e97b" stroke-width="2"/>
    <text x="380" y="98" font-size="10" fill="#fff" text-anchor="middle">P</text>
  </g>

  <!-- Legend boxes -->
  <g transform="translate(700, 80)">
    <rect x="0" y="0" width="170" height="55" rx="6" fill="rgba(67,233,123,0.1)" stroke="rgba(67,233,123,0.4)" stroke-width="1"/>
    <line x1="15" y1="20" x2="45" y2="20" stroke="#43e97b" stroke-width="2"/>
    <text x="55" y="24" font-size="11" fill="#43e97b">Near neighbors</text>
    <text x="15" y="42" font-size="9" fill="rgba(255,255,255,0.5)">Similar locations</text>
  </g>

  <g transform="translate(700, 150)">
    <rect x="0" y="0" width="170" height="55" rx="6" fill="rgba(79,172,254,0.1)" stroke="rgba(79,172,254,0.4)" stroke-width="1"/>
    <line x1="15" y1="20" x2="45" y2="20" stroke="url(#blueGrad)" stroke-width="2" stroke-dasharray="6 3"/>
    <text x="55" y="24" font-size="11" fill="#4facfe">Long-range shortcuts</text>
    <text x="15" y="42" font-size="9" fill="rgba(255,255,255,0.5)">O(log n) hops to anywhere</text>
  </g>

  <!-- Key result callout -->
  <g transform="translate(700, 420)">
    <rect x="0" y="0" width="170" height="50" rx="8" fill="rgba(79,172,254,0.15)" stroke="rgba(79,172,254,0.6)" stroke-width="1.5"/>
    <text x="85" y="24" font-size="18" font-weight="600" fill="#4facfe" text-anchor="middle">O(log n)</text>
    <text x="85" y="42" font-size="11" fill="rgba(255,255,255,0.6)" text-anchor="middle">routing hops</text>
  </g>

</svg>
