<svg xmlns="http://www.w3.org/2000/svg" viewBox="0 0 1080 1080">
<style type="text/css">
	.st0{fill:url(#SVGID_1_);}
	.st1{fill:url(#SVGID_2_);}
	.st2{fill:url(#SVGID_3_);}
	.st3{fill:url(#SVGID_4_);}
	.st4{fill:url(#SVGID_5_);}
	.st5{fill:url(#SVGID_6_);}
	.st6{fill:url(#SVGID_7_);}
</style>
<g>
	<linearGradient id="SVGID_1_" gradientUnits="userSpaceOnUse" x1="41.76" y1="748.9001" x2="999.9998" y2="748.9001">
		<stop  offset="0" style="stop-color:#0163F4"/>
		<stop  offset="0.4777" style="stop-color:#0034C7"/>
		<stop  offset="0.9888" style="stop-color:#45B1FE"/>
	</linearGradient>
	<path class="st0" d="M1000,1061.3C943.9,994.1,883.9,936,762.2,861c-121.7-74.9-177-96.1-235.6-118.9c-58.6-22.8-117.8-31-196-84.2
		c-78.2-53.2-100.4-90.9-132.8-133.5c-32.4-42.6-64.3-64.5-98.5-68.8c-34.2-4.3-57.6,8.4-57.6,8.4s22.4-33.2,86.5-26.8
		c46.3,3.9,81.2,21.9,108.3,33.6c0.7,0.3,1.3,0.6,2.1,0.9v0c15.5,16,36.7,36.6,71.2,63.1c73.7,56.4,126.7,78.2,216.5,114
		c10.6,4.2,20.6,8.2,30.1,12.1c71.3,28.8,114.8,48,158.9,77.1c50,33,115.6,75.9,177.9,145.6C987.7,987.3,1000,1061.3,1000,1061.3z"
		/>
	<linearGradient id="SVGID_2_" gradientUnits="userSpaceOnUse" x1="81.3969" y1="402.1593" x2="425.5583" y2="535.3831">
		<stop  offset="0" style="stop-color:#4CB4FE"/>
		<stop  offset="0.4553" style="stop-color:#40A7FD"/>
		<stop  offset="0.933" style="stop-color:#228CFE"/>
	</linearGradient>
	<path class="st1" d="M521.9,543.4c-35.7,1.3-74.8-1-131.6-15.3c-67.7-17.1-123.8-44-151.7-56.2v0c-0.7-0.3-1.4-0.6-2.1-0.9
		c-27.1-11.7-62.1-29.7-108.3-33.6c-64.1-6.5-86.5,26.8-86.5,26.8s3.3-23.2,26.1-40.3C78.8,416,84,414,97.5,406.4
		c13.5-7.6,26.1-19.1,42.2-26.5c16.1-7.4,59.8-11.6,91.7,3.2c13.3,6.1,23.6,11.7,35.2,18.9c2,1.3,4.1,2.6,6.2,4
		c15,9.8,33,22.9,62,43.9c2.8,2.1,5.7,4.1,8.4,6c8.6,6.1,17,11.6,25.2,16.8c42.1,26.4,80.1,42.4,122.9,59.1c2.3,0.9,4.7,1.8,7.1,2.7
		c0,0,0,0,0.1,0C505.9,537.5,513.7,540.4,521.9,543.4z"/>
	<linearGradient id="SVGID_3_" gradientUnits="userSpaceOnUse" x1="238.6403" y1="642.1245" x2="1038.24" y2="642.1245">
		<stop  offset="0" style="stop-color:#0166F7"/>
		<stop  offset="0.4777" style="stop-color:#076EFD"/>
		<stop  offset="0.9888" style="stop-color:#60C4FE"/>
	</linearGradient>
	<path class="st2" d="M1038.2,811.2c0,0-57.7,8.9-141.6-22.5c-83.9-31.5-171.5-66.9-228.5-87.3c-39.4-14-81.8-30.3-111.7-40.4
		c-9.5-3.9-19.5-7.9-30.1-12.1c-89.7-35.9-142.8-57.6-216.5-114c-34.5-26.4-55.7-47.1-71.2-63.1c27.9,12.2,84,39.1,151.7,56.2
		c56.8,14.3,95.9,16.6,131.6,15.3c51.3,18.9,116.5,41.7,172.8,71.7c68.2,36.4,140,95.3,196.8,132
		C948.2,783.8,989.2,806.3,1038.2,811.2z"/>
	<linearGradient id="SVGID_4_" gradientUnits="userSpaceOnUse" x1="241.9655" y1="361.3318" x2="774.8607" y2="24.5717">
		<stop  offset="0" style="stop-color:#2C97FE"/>
		<stop  offset="0.4553" style="stop-color:#78D4FD"/>
		<stop  offset="0.933" style="stop-color:#57BEFE"/>
	</linearGradient>
	<path class="st3" d="M817.3,18.7c0,0-6.8,35.3-27.5,78.6c-55.1,45.3-100.5,65.1-162.6,88.3c-64.1,23.7-119.8,33.2-195.2,67.7
		c-108.4,50.5-151.7,136.5-159.1,152.9c-2.1-1.4-4.2-2.7-6.2-4c-3.1-20.1-7.6-81.1,36.2-144.3c53.7-77.3,149-109.6,253.5-130.4
		C660.9,106.6,755.3,76.5,817.3,18.7z"/>
	<linearGradient id="SVGID_5_" gradientUnits="userSpaceOnUse" x1="272.8457" y1="276.6363" x2="789.8075" y2="276.6363">
		<stop  offset="0" style="stop-color:#0144DC"/>
		<stop  offset="0.4553" style="stop-color:#158CFE"/>
		<stop  offset="0.933" style="stop-color:#2DA4FE"/>
	</linearGradient>
	<path class="st4" d="M789.8,97.3c-8.9,18.7-20.4,38.8-35,58.3c-33.2,44.2-63.6,68.1-98.6,89.9h0c-16.3,10.1-33.6,19.8-52.6,30.8
		c-59.9,34.7-101,71.1-133.1,101c-28.8,26.9-80.2,64.4-127.3,78.7c-2.8-1.9-5.6-3.9-8.4-6c-28.9-21-47-34.1-62-43.9
		c7.5-16.4,50.7-102.4,159.1-152.9c75.4-34.5,131.1-43.9,195.2-67.7C689.3,162.4,734.7,142.6,789.8,97.3z"/>
	<linearGradient id="SVGID_6_" gradientUnits="userSpaceOnUse" x1="400.9297" y1="270.5172" x2="920.2557" y2="372.9021">
		<stop  offset="0" style="stop-color:#001E9D"/>
		<stop  offset="0.5102" style="stop-color:#0174FB"/>
		<stop  offset="1" style="stop-color:#54BCFE"/>
	</linearGradient>
	<path class="st5" d="M909.3,162.1c0,0-21.9,62-62,108.9c-34.6,40.4-69.6,75.1-150.6,109.3c0,0,0,0,0,0c-13,5.5-27.2,11-42.7,16.5
		c-95.1,33.6-229.4,63.9-285.5,76c-8.2-5.2-16.6-10.7-25.2-16.8c47-14.3,98.5-51.8,127.3-78.7c32.1-29.9,73.2-66.3,133.1-101
		c19-11,36.3-20.7,52.6-30.8h0c32.5-8.1,108-27.8,161.1-47.4C886.5,172.6,909.3,162.1,909.3,162.1z"/>
	<linearGradient id="SVGID_7_" gradientUnits="userSpaceOnUse" x1="410.4252" y1="374.0345" x2="1016.1" y2="554.1333">
		<stop  offset="0.1017" style="stop-color:#001E9C"/>
		<stop  offset="0.5473" style="stop-color:#188DFE"/>
		<stop  offset="0.933" style="stop-color:#55BCFD"/>
	</linearGradient>
	<path class="st6" d="M836.2,366.2c0,0-30.5,58-113.5,108.9c-63.4,38.9-144.7,63.8-224.2,59.6c0,0-0.1,0-0.1,0
		c-2.4-0.9-4.8-1.8-7.1-2.7c-42.8-16.7-80.8-32.7-122.9-59.1c56.1-12.1,190.4-42.4,285.5-76c15.5-5.5,29.7-11,42.7-16.5c0,0,0,0,0,0
		C715.8,379,772.6,374.8,836.2,366.2z"/>
</g>
</svg>
