<svg viewBox="0 0 1200 500" xmlns="http://www.w3.org/2000/svg" font-family="Inter, system-ui, sans-serif" style="background: transparent;">
  <!-- Explicit background rect to prevent rendering artifacts -->
  <rect x="0" y="0" width="1200" height="500" fill="transparent"/>
  <defs>
    <linearGradient id="blueGrad" x1="0%" y1="0%" x2="100%" y2="100%">
      <stop offset="0%" style="stop-color:#4facfe"/>
      <stop offset="100%" style="stop-color:#00f2fe"/>
    </linearGradient>
    <linearGradient id="greenGrad" x1="0%" y1="0%" x2="100%" y2="100%">
      <stop offset="0%" style="stop-color:#43e97b"/>
      <stop offset="100%" style="stop-color:#38f9d7"/>
    </linearGradient>
  </defs>

  <!-- Column headers -->
  <text x="300" y="35" font-size="20" font-weight="600" fill="#888" text-anchor="middle">Traditional Web</text>
  <text x="900" y="35" font-size="20" font-weight="600" fill="url(#blueGrad)" text-anchor="middle">Freenet</text>

  <!-- VS divider -->
  <line x1="600" y1="50" x2="600" y2="460" stroke="rgba(255,255,255,0.12)" stroke-width="2" stroke-dasharray="8,8"/>

  <!-- ==================== TRADITIONAL WEB (LEFT) ==================== -->

  <!-- Datacenter enclosing box -->
  <g transform="translate(120, 45)">
    <rect x="0" y="0" width="300" height="160" rx="8" fill="rgba(250,112,154,0.06)" stroke="rgba(250,112,154,0.35)" stroke-width="1.5" stroke-dasharray="6,3"/>
    <text x="150" y="20" font-size="11" fill="rgba(250,112,154,0.7)" text-anchor="middle">Centralized Datacenter</text>

    <!-- Databases at top -->
    <g transform="translate(55, 35)">
      <!-- Database 1 -->
      <g transform="translate(0, 0)">
        <ellipse cx="25" cy="5" rx="25" ry="8" fill="rgba(241,196,15,0.2)" stroke="rgba(241,196,15,0.6)" stroke-width="1.5"/>
        <path d="M0,5 L0,30 Q0,38 25,38 Q50,38 50,30 L50,5" fill="rgba(241,196,15,0.15)" stroke="rgba(241,196,15,0.6)" stroke-width="1.5"/>
        <ellipse cx="25" cy="30" rx="25" ry="8" fill="none" stroke="rgba(241,196,15,0.4)" stroke-width="1"/>
      </g>
      <!-- Database 2 -->
      <g transform="translate(70, 0)">
        <ellipse cx="25" cy="5" rx="25" ry="8" fill="rgba(241,196,15,0.2)" stroke="rgba(241,196,15,0.6)" stroke-width="1.5"/>
        <path d="M0,5 L0,30 Q0,38 25,38 Q50,38 50,30 L50,5" fill="rgba(241,196,15,0.15)" stroke="rgba(241,196,15,0.6)" stroke-width="1.5"/>
        <ellipse cx="25" cy="30" rx="25" ry="8" fill="none" stroke="rgba(241,196,15,0.4)" stroke-width="1"/>
      </g>
      <!-- Database 3 -->
      <g transform="translate(140, 0)">
        <ellipse cx="25" cy="5" rx="25" ry="8" fill="rgba(241,196,15,0.2)" stroke="rgba(241,196,15,0.6)" stroke-width="1.5"/>
        <path d="M0,5 L0,30 Q0,38 25,38 Q50,38 50,30 L50,5" fill="rgba(241,196,15,0.15)" stroke="rgba(241,196,15,0.6)" stroke-width="1.5"/>
        <ellipse cx="25" cy="30" rx="25" ry="8" fill="none" stroke="rgba(241,196,15,0.4)" stroke-width="1"/>
      </g>
      <text x="95" y="55" font-size="9" fill="rgba(241,196,15,0.8)" text-anchor="middle">Databases</text>
    </g>

    <!-- Connection lines from servers to databases -->
    <line x1="62" y1="105" x2="80" y2="92" stroke="rgba(255,255,255,0.2)" stroke-width="1"/>
    <line x1="142" y1="105" x2="150" y2="92" stroke="rgba(255,255,255,0.2)" stroke-width="1"/>
    <line x1="222" y1="105" x2="220" y2="92" stroke="rgba(255,255,255,0.2)" stroke-width="1"/>

    <!-- Web Servers below databases -->
    <g transform="translate(35, 105)">
      <!-- Server 1 -->
      <g transform="translate(0, 0)">
        <rect x="0" y="0" width="55" height="40" rx="3" fill="rgba(250,112,154,0.15)" stroke="rgba(250,112,154,0.5)" stroke-width="1.5"/>
        <rect x="6" y="8" width="43" height="7" rx="2" fill="rgba(250,112,154,0.3)"/>
        <rect x="6" y="20" width="43" height="7" rx="2" fill="rgba(250,112,154,0.3)"/>
        <circle cx="44" cy="11.5" r="2" fill="#fa709a"/>
        <circle cx="44" cy="23.5" r="2" fill="#fa709a"/>
      </g>
      <!-- Server 2 -->
      <g transform="translate(80, 0)">
        <rect x="0" y="0" width="55" height="40" rx="3" fill="rgba(250,112,154,0.15)" stroke="rgba(250,112,154,0.5)" stroke-width="1.5"/>
        <rect x="6" y="8" width="43" height="7" rx="2" fill="rgba(250,112,154,0.3)"/>
        <rect x="6" y="20" width="43" height="7" rx="2" fill="rgba(250,112,154,0.3)"/>
        <circle cx="44" cy="11.5" r="2" fill="#fa709a"/>
        <circle cx="44" cy="23.5" r="2" fill="#fa709a"/>
      </g>
      <!-- Server 3 -->
      <g transform="translate(160, 0)">
        <rect x="0" y="0" width="55" height="40" rx="3" fill="rgba(250,112,154,0.15)" stroke="rgba(250,112,154,0.5)" stroke-width="1.5"/>
        <rect x="6" y="8" width="43" height="7" rx="2" fill="rgba(250,112,154,0.3)"/>
        <rect x="6" y="20" width="43" height="7" rx="2" fill="rgba(250,112,154,0.3)"/>
        <circle cx="44" cy="11.5" r="2" fill="#fa709a"/>
        <circle cx="44" cy="23.5" r="2" fill="#fa709a"/>
      </g>
      <text x="107" y="52" font-size="9" fill="rgba(250,112,154,0.8)" text-anchor="middle">Web Servers</text>
    </g>
  </g>

  <!-- Connection lines from datacenter to protocol box -->
  <line x1="270" y1="210" x2="270" y2="225" stroke="rgba(255,255,255,0.25)" stroke-width="1.5"/>

  <!-- Protocol box -->
  <g transform="translate(178, 220)">
    <rect x="0" y="0" width="80" height="30" rx="4" fill="rgba(255,255,255,0.08)" stroke="rgba(255,255,255,0.25)" stroke-width="1.5"/>
    <text x="40" y="20" font-size="12" font-weight="500" fill="#aaa" text-anchor="middle">HTTPS</text>
    <rect x="90" y="0" width="95" height="30" rx="4" fill="rgba(255,255,255,0.08)" stroke="rgba(255,255,255,0.25)" stroke-width="1.5"/>
    <text x="137" y="20" font-size="12" font-weight="500" fill="#aaa" text-anchor="middle">WebSockets</text>
  </g>

  <!-- Connection to browser -->
  <line x1="270" y1="255" x2="270" y2="285" stroke="rgba(255,255,255,0.25)" stroke-width="1.5"/>

  <!-- Browser -->
  <g transform="translate(185, 290)">
    <rect x="0" y="0" width="170" height="80" rx="6" fill="rgba(255,255,255,0.06)" stroke="rgba(255,255,255,0.2)" stroke-width="1.5"/>
    <!-- Browser chrome -->
    <rect x="0" y="0" width="170" height="22" rx="6" fill="rgba(255,255,255,0.08)"/>
    <rect x="0" y="14" width="170" height="8" fill="rgba(255,255,255,0.08)"/>
    <circle cx="14" cy="11" r="4" fill="rgba(250,112,154,0.5)"/>
    <circle cx="28" cy="11" r="4" fill="rgba(241,196,15,0.5)"/>
    <circle cx="42" cy="11" r="4" fill="rgba(67,233,123,0.5)"/>
    <!-- Browser content -->
    <rect x="12" y="30" width="146" height="38" rx="3" fill="rgba(255,255,255,0.04)"/>
    <text x="85" y="90" font-size="11" fill="#777" text-anchor="middle">Browser</text>
  </g>

  <!-- Arrow to user -->
  <line x1="270" y1="380" x2="270" y2="405" stroke="rgba(255,255,255,0.25)" stroke-width="1.5"/>
  <polygon points="270,412 265,404 275,404" fill="rgba(255,255,255,0.25)"/>

  <!-- User icon -->
  <g transform="translate(240, 418)">
    <circle cx="30" cy="12" r="12" fill="none" stroke="rgba(255,255,255,0.35)" stroke-width="1.5"/>
    <path d="M10,45 Q10,28 30,28 Q50,28 50,45" fill="none" stroke="rgba(255,255,255,0.35)" stroke-width="1.5"/>
    <text x="30" y="62" font-size="11" fill="#666" text-anchor="middle">User</text>
  </g>

  <!-- ==================== FREENET (RIGHT) ==================== -->

  <!-- P2P Network at top -->
  <g transform="translate(760, 55)">
    <!-- Network nodes and connections -->
    <circle cx="140" cy="15" r="10" fill="rgba(67,233,123,0.35)" stroke="#43e97b" stroke-width="1.5"/>
    <circle cx="75" cy="40" r="10" fill="rgba(67,233,123,0.35)" stroke="#43e97b" stroke-width="1.5"/>
    <circle cx="205" cy="40" r="10" fill="rgba(67,233,123,0.35)" stroke="#43e97b" stroke-width="1.5"/>
    <circle cx="50" cy="80" r="10" fill="rgba(67,233,123,0.35)" stroke="#43e97b" stroke-width="1.5"/>
    <circle cx="110" cy="75" r="10" fill="rgba(67,233,123,0.35)" stroke="#43e97b" stroke-width="1.5"/>
    <circle cx="170" cy="75" r="10" fill="rgba(67,233,123,0.35)" stroke="#43e97b" stroke-width="1.5"/>
    <circle cx="230" cy="80" r="10" fill="rgba(67,233,123,0.35)" stroke="#43e97b" stroke-width="1.5"/>

    <!-- Connection lines -->
    <line x1="140" y1="15" x2="75" y2="40" stroke="rgba(67,233,123,0.45)" stroke-width="1.5"/>
    <line x1="140" y1="15" x2="205" y2="40" stroke="rgba(67,233,123,0.45)" stroke-width="1.5"/>
    <line x1="75" y1="40" x2="50" y2="80" stroke="rgba(67,233,123,0.45)" stroke-width="1.5"/>
    <line x1="75" y1="40" x2="110" y2="75" stroke="rgba(67,233,123,0.45)" stroke-width="1.5"/>
    <line x1="205" y1="40" x2="170" y2="75" stroke="rgba(67,233,123,0.45)" stroke-width="1.5"/>
    <line x1="205" y1="40" x2="230" y2="80" stroke="rgba(67,233,123,0.45)" stroke-width="1.5"/>
    <line x1="110" y1="75" x2="170" y2="75" stroke="rgba(67,233,123,0.45)" stroke-width="1.5"/>
    <line x1="50" y1="80" x2="110" y2="75" stroke="rgba(67,233,123,0.35)" stroke-width="1"/>
    <line x1="170" y1="75" x2="230" y2="80" stroke="rgba(67,233,123,0.35)" stroke-width="1"/>
    <line x1="140" y1="15" x2="110" y2="75" stroke="rgba(67,233,123,0.25)" stroke-width="1"/>
    <line x1="140" y1="15" x2="170" y2="75" stroke="rgba(67,233,123,0.25)" stroke-width="1"/>

    <text x="140" y="107" font-size="11" fill="#43e97b" text-anchor="middle">P2P Network</text>
  </g>

  <!-- Connection lines from network to Freenet box -->
  <line x1="835" y1="168" x2="870" y2="195" stroke="rgba(67,233,123,0.35)" stroke-width="1.5" stroke-dasharray="4,4"/>
  <line x1="900" y1="165" x2="900" y2="195" stroke="rgba(67,233,123,0.35)" stroke-width="1.5" stroke-dasharray="4,4"/>
  <line x1="965" y1="168" x2="930" y2="195" stroke="rgba(67,233,123,0.35)" stroke-width="1.5" stroke-dasharray="4,4"/>

  <!-- Freenet box -->
  <g transform="translate(780, 200)">
    <rect x="0" y="0" width="240" height="42" rx="6" fill="rgba(67,233,123,0.12)" stroke="url(#greenGrad)" stroke-width="2"/>
    <text x="120" y="27" font-size="16" font-weight="600" fill="#43e97b" text-anchor="middle">Freenet</text>
  </g>

  <!-- Protocol boxes -->
  <g transform="translate(795, 257)">
    <rect x="0" y="0" width="80" height="30" rx="4" fill="rgba(79,172,254,0.12)" stroke="rgba(79,172,254,0.35)" stroke-width="1.5"/>
    <text x="40" y="20" font-size="12" font-weight="500" fill="#4facfe" text-anchor="middle">HTTPS</text>
    <rect x="90" y="0" width="95" height="30" rx="4" fill="rgba(79,172,254,0.12)" stroke="rgba(79,172,254,0.35)" stroke-width="1.5"/>
    <text x="137" y="20" font-size="12" font-weight="500" fill="#4facfe" text-anchor="middle">WebSockets</text>
  </g>

  <!-- Connection to browser -->
  <line x1="900" y1="292" x2="900" y2="320" stroke="rgba(79,172,254,0.35)" stroke-width="1.5" stroke-dasharray="4,4"/>

  <!-- Browser -->
  <g transform="translate(815, 325)">
    <rect x="0" y="0" width="170" height="80" rx="6" fill="rgba(255,255,255,0.06)" stroke="rgba(255,255,255,0.2)" stroke-width="1.5"/>
    <!-- Browser chrome -->
    <rect x="0" y="0" width="170" height="22" rx="6" fill="rgba(255,255,255,0.08)"/>
    <rect x="0" y="14" width="170" height="8" fill="rgba(255,255,255,0.08)"/>
    <circle cx="14" cy="11" r="4" fill="rgba(250,112,154,0.5)"/>
    <circle cx="28" cy="11" r="4" fill="rgba(241,196,15,0.5)"/>
    <circle cx="42" cy="11" r="4" fill="rgba(67,233,123,0.5)"/>
    <!-- Browser content -->
    <rect x="12" y="30" width="146" height="38" rx="3" fill="rgba(255,255,255,0.04)"/>
  </g>

  <!-- Arrow to user -->
  <line x1="900" y1="410" x2="900" y2="435" stroke="rgba(255,255,255,0.25)" stroke-width="1.5"/>
  <polygon points="900,442 895,434 905,434" fill="rgba(255,255,255,0.25)"/>

  <!-- User icon -->
  <g transform="translate(870, 448)">
    <circle cx="30" cy="12" r="12" fill="none" stroke="rgba(255,255,255,0.35)" stroke-width="1.5"/>
    <path d="M10,45 Q10,28 30,28 Q50,28 50,45" fill="none" stroke="rgba(255,255,255,0.35)" stroke-width="1.5"/>
  </g>

  <!-- Same interface callout -->
  <g transform="translate(545, 320)">
    <text x="55" y="0" font-size="10" fill="rgba(79,172,254,0.7)" text-anchor="middle">Same interface</text>
    <text x="55" y="14" font-size="10" fill="rgba(79,172,254,0.7)" text-anchor="middle">for the user</text>
    <line x1="0" y1="7" x2="22" y2="7" stroke="rgba(79,172,254,0.35)" stroke-width="1"/>
    <line x1="88" y1="7" x2="110" y2="7" stroke="rgba(79,172,254,0.35)" stroke-width="1"/>
  </g>

</svg>
